<svg id="coach_1_" data-name="coach (1)" xmlns="http://www.w3.org/2000/svg" width="48.495" height="48.495" viewBox="0 0 48.495 48.495">
  <path id="Path_60619" data-name="Path 60619" d="M8.524,424.707v-3.192A1.5,1.5,0,0,0,7.1,420H2.325L0,422.936v4.357a1.42,1.42,0,0,0,1.421,1.421H5.683Z" transform="translate(0 -380.219)" fill="#f3c1a1"/>
  <path id="Path_60620" data-name="Path 60620" d="M110.89,105v8.524a9.764,9.764,0,0,1-3.751,7.729,6.87,6.87,0,0,1-1.193.824,3.83,3.83,0,0,1-.739.426v.966l1.364,1.989a5.674,5.674,0,0,1-5.626,5.115,5.631,5.631,0,0,1-3.978-1.648,5.151,5.151,0,0,1-.71-.852,5.653,5.653,0,0,1-.909-2.671l1.307-1.932h.028V122.5a3.493,3.493,0,0,1-.71-.4,6.857,6.857,0,0,1-1.193-.824A9.8,9.8,0,0,1,91,113.524V105h2.841a4.257,4.257,0,0,0,4.262,4.262h5.683a4.144,4.144,0,0,0,2.984-1.25c.028,0,.028,0,.028-.028a4.144,4.144,0,0,0,1.25-2.984Z" transform="translate(-82.381 -95.055)" fill="#f4c2a2"/>
  <path id="Path_60621" data-name="Path 60621" d="M110.89,7.1V8.524l-7.5,2.841H95.007L91,8.524V7.1A7.106,7.106,0,0,1,98.1,0h5.683A7.106,7.106,0,0,1,110.89,7.1Z" transform="translate(-82.381)" fill="#ff6a5f"/>
  <path id="Path_60623" data-name="Path 60623" d="M205.945,105v8.524a9.764,9.764,0,0,1-3.751,7.729,6.87,6.87,0,0,1-1.193.824,3.83,3.83,0,0,1-.739.426v.966l1.364,1.989A5.674,5.674,0,0,1,196,130.573V109.262h2.841a4.144,4.144,0,0,0,2.984-1.25c.028,0,.028,0,.028-.028A4.144,4.144,0,0,0,203.1,105Z" transform="translate(-177.436 -95.055)" fill="#e8b492"/>
  <path id="Path_60624" data-name="Path 60624" d="M91,90v1.421a7.106,7.106,0,0,0,7.1,7.1h5.683a7.131,7.131,0,0,0,7.1-7.1V90Z" transform="translate(-82.381 -81.476)" fill="#cc2e22"/>
  <path id="Path_60625" data-name="Path 60625" d="M205.945,90v1.421a7.131,7.131,0,0,1-7.1,7.1H196V90Z" transform="translate(-177.436 -81.476)" fill="#ef4437"/>
  <path id="Path_60626" data-name="Path 60626" d="M31.351,301.421v17.238a1.407,1.407,0,0,1-1.421,1.421H5.683V314.3H0v-7.2A7.106,7.106,0,0,1,7.1,300h4.527l1.307,1.563a5.28,5.28,0,0,0,.938,3.04,5.151,5.151,0,0,0,.71.852,5.631,5.631,0,0,0,3.978,1.648,5.676,5.676,0,0,0,5.655-5.711L25.555,300H29.93A1.407,1.407,0,0,1,31.351,301.421Z" transform="translate(0 -271.585)" fill="#fbc934"/>
  <path id="Path_60627" data-name="Path 60627" d="M208.787,301.421v17.238a1.407,1.407,0,0,1-1.421,1.421H196V307.1a5.676,5.676,0,0,0,5.655-5.711L202.99,300h4.376A1.407,1.407,0,0,1,208.787,301.421Z" transform="translate(-177.436 -271.585)" fill="#f2bc1a"/>
  <path id="Path_60628" data-name="Path 60628" d="M319.564,265.763H302.421A1.42,1.42,0,0,1,301,264.342V241.421A1.42,1.42,0,0,1,302.421,240h17.144a1.42,1.42,0,0,1,1.421,1.421v22.921A1.42,1.42,0,0,1,319.564,265.763Z" transform="translate(-272.49 -217.268)" fill="#01ad97"/>
  <path id="Path_60629" data-name="Path 60629" d="M331,270h14.3v19.985H331Z" transform="translate(-299.649 -244.427)" fill="#fff"/>
  <g id="Group_25730" data-name="Group 25730" transform="translate(11.47 19.89)">
    <path id="Path_60630" data-name="Path 60630" d="M368.1,218.524h-5.683A1.42,1.42,0,0,1,361,217.1v-5.683A1.42,1.42,0,0,1,362.421,210H368.1a1.42,1.42,0,0,1,1.421,1.421V217.1A1.42,1.42,0,0,1,368.1,218.524Z" transform="translate(-338.277 -210)" fill="#9d9d9d"/>
    <path id="Path_60631" data-name="Path 60631" d="M368.1,332.842h-5.683a1.421,1.421,0,0,1,0-2.842H368.1a1.421,1.421,0,0,1,0,2.842Z" transform="translate(-338.277 -318.634)" fill="#9d9d9d"/>
    <path id="Path_60632" data-name="Path 60632" d="M368.1,392.841h-5.683a1.421,1.421,0,0,1,0-2.841H368.1a1.421,1.421,0,1,1,0,2.841Z" transform="translate(-338.277 -372.951)" fill="#9d9d9d"/>
    <path id="Path_60633" data-name="Path 60633" d="M133.191,306.45a6.956,6.956,0,0,1-5,2.074,7.068,7.068,0,0,1-6.336-3.921,6.8,6.8,0,0,1-.6-4.6h1.25c.057,0,.114.028.2.028V300H123.9a7.878,7.878,0,0,0,.483,3.324,4.261,4.261,0,0,0,3.808,2.359,4.144,4.144,0,0,0,2.984-1.25c1.279-1.25,1.307-2.728,1.279-4.433h1.222v.028c.085,0,.142-.028.2-.028h1.307A7.069,7.069,0,0,1,133.191,306.45Z" transform="translate(-121.095 -291.476)" fill="#9d9d9d"/>
  </g>
  <path id="Path_60634" data-name="Path 60634" d="M201,306.45a6.956,6.956,0,0,1-5,2.074v-2.841a4.144,4.144,0,0,0,2.984-1.25c1.279-1.25,1.307-2.728,1.279-4.433h1.222v.028c.085,0,.142-.028.2-.028h1.307A7.069,7.069,0,0,1,201,306.45Z" transform="translate(-177.436 -271.585)" fill="#333"/>
  <path id="Path_60635" data-name="Path 60635" d="M155.262,360A4.256,4.256,0,0,0,151,364.262v5.778a1.421,1.421,0,1,0,2.841,0v-1.677a4.661,4.661,0,0,0,1.421.256,4.338,4.338,0,0,0,4.262-4.357A4.256,4.256,0,0,0,155.262,360Z" transform="translate(-136.698 -325.902)" fill="#ff7701"/>
  <path id="Path_60636" data-name="Path 60636" d="M200.262,364.262A4.338,4.338,0,0,1,196,368.619V360A4.256,4.256,0,0,1,200.262,364.262Z" transform="translate(-177.436 -325.902)" fill="#de6f10"/>
</svg>
