<svg xmlns="http://www.w3.org/2000/svg" width="43.736" height="40.945" viewBox="0 0 43.736 40.945">
  <g id="healthy-food_1_" data-name="healthy-food (1)" transform="translate(0 -0.5)">
    <path id="Path_60574" data-name="Path 60574" d="M275.692,37.138c0,5.94-3.84,10.8-8.533,10.8h-5.006a7.013,7.013,0,0,1-3.641-1.04c-3.192-1.922-4.891-5.909-4.891-9.761a9.934,9.934,0,0,1,2.676-6.985,9.783,9.783,0,0,0,2.174-3.471,12.141,12.141,0,0,0,.706-3.065c.042-.417.063-.84.063-1.266,0-3.771,2.438-6.855,5.416-6.855a4.91,4.91,0,0,1,3.825,2.014,7.837,7.837,0,0,1,1.591,4.841,11.135,11.135,0,0,0,2.944,7.8,8.951,8.951,0,0,1,1.948,3.048A10.816,10.816,0,0,1,275.692,37.138Zm0,0" transform="translate(-231.956 -13.716)" fill="#8bc249"/>
    <path id="Path_60575" data-name="Path 60575" d="M264.2,120.659a13.061,13.061,0,0,1-1.659,5.868l-4.025,7.317c-3.192-1.922-4.891-5.909-4.891-9.761A9.932,9.932,0,0,1,256.3,117.1a9.793,9.793,0,0,0,2.174-3.471,12.141,12.141,0,0,0,.706-3.064,9.222,9.222,0,0,1,4.315,5.406A13.065,13.065,0,0,1,264.2,120.659Zm0,0" transform="translate(-231.956 -100.661)" fill="#78b135"/>
    <path id="Path_60576" data-name="Path 60576" d="M322.413,204.363a6.429,6.429,0,1,1-6.429-6.429A6.429,6.429,0,0,1,322.413,204.363Zm0,0" transform="translate(-283.112 -180.569)" fill="#ae583e"/>
    <path id="Path_60577" data-name="Path 60577" d="M315.212,198.516a6.435,6.435,0,0,0-3.142,11.457l1.653-3.005a12.823,12.823,0,0,0,1.49-8.452Zm0,0" transform="translate(-283.142 -181.101)" fill="#7c3f2c"/>
    <path id="Path_60578" data-name="Path 60578" d="M58.97,6.494c-.336-1.53-2.069-7.07-9.39-5.81a.327.327,0,0,0-.239.463C50.1,2.74,53.316,8.643,58.671,7A.434.434,0,0,0,58.97,6.494Zm0,0" transform="translate(-45.097 0)" fill="#8bc249"/>
    <path id="Path_60579" data-name="Path 60579" d="M58.671,7.047C53.317,8.69,50.1,2.787,49.342,1.194a.327.327,0,0,1,.239-.463A12.307,12.307,0,0,1,51.342.551c1.123,1.982,3.638,5.441,7.4,5.174.107.328.179.609.224.816A.433.433,0,0,1,58.671,7.047Zm0,0" transform="translate(-45.098 -0.047)" fill="#78b135"/>
    <path id="Path_60580" data-name="Path 60580" d="M159.519,12.022a.663.663,0,0,1-.664-.664V1.879a.664.664,0,0,1,1.327,0v9.48A.663.663,0,0,1,159.519,12.022Zm0,0" transform="translate(-145.286 -0.654)" fill="#c0694e"/>
    <path id="Path_60581" data-name="Path 60581" d="M26.8,115.965l-4.672,8.494A4.708,4.708,0,0,1,16,126.026a3.813,3.813,0,0,0-3.536,0,4.7,4.7,0,0,1-6.125-1.567l-4.672-8.494a12.885,12.885,0,0,1-.956-10.558c1.435-4.173,4.236-5.628,6.171-6.131a7.768,7.768,0,0,1,1.9-.261c.109,0,.169,0,.169,0a7.582,7.582,0,0,1,2.486.415,7.187,7.187,0,0,1,2.095,1.145,1.072,1.072,0,0,0,1.4,0,7.18,7.18,0,0,1,2.1-1.145,7.576,7.576,0,0,1,2.485-.415s5.915-.377,8.242,6.389A12.877,12.877,0,0,1,26.8,115.965Zm0,0" transform="translate(0 -90.099)" fill="#cc2e22"/>
    <path id="Path_60582" data-name="Path 60582" d="M72.37,115.965,67.7,124.459a4.708,4.708,0,0,1-6.126,1.567,3.813,3.813,0,0,0-3.536,0,4.74,4.74,0,0,1-1.858.523c-.036-.071-3.745-8.229-4.691-10.309-2.829-6.218-1.732-13.148.966-16.965a7.768,7.768,0,0,1,1.9-.261c.109,0,.169,0,.169,0a7.582,7.582,0,0,1,2.486.415,7.187,7.187,0,0,1,2.095,1.145,1.072,1.072,0,0,0,1.4,0,7.18,7.18,0,0,1,2.1-1.145,7.576,7.576,0,0,1,2.485-.415s5.915-.377,8.242,6.389A12.877,12.877,0,0,1,72.37,115.965Zm0,0" transform="translate(-45.571 -90.099)" fill="#ef4437"/>
    <path id="Path_60583" data-name="Path 60583" d="M6.613,320.31a1.526,1.526,0,0,0-.637,2.061,9.815,9.815,0,0,0,1.689,2.29l-5.089-.567a1.526,1.526,0,1,0-.338,3.032l5.089.567a9.819,9.819,0,0,0-2.152,1.862,1.526,1.526,0,1,0,2.319,1.983c1.743-2.038,4.9-2.912,7.578-3a1.525,1.525,0,0,0,.283-3.012c-.048-.011-4.883-1.176-6.68-4.58A1.525,1.525,0,0,0,6.613,320.31Zm0,0" transform="translate(-0.806 -292.331)" fill="#78b135"/>
    <path id="Path_60584" data-name="Path 60584" d="M170.516,341.055a3.867,3.867,0,0,1-3.835,3.438l-21.545.042a6.318,6.318,0,1,1,1.394-12.476l18.271,4.174,1.3.3,1.428.327a3.867,3.867,0,0,1,2.982,4.2Zm0,0" transform="translate(-126.949 -303.09)" fill="#e27110"/>
    <path id="Path_60585" data-name="Path 60585" d="M178.426,339.983a3.859,3.859,0,0,1-3.064,1.518l-21.544.042a4.988,4.988,0,1,1-.763-9.644,6.122,6.122,0,0,1,.762.047,6.243,6.243,0,0,1,.653.113l.652.148,17.618,4.026,1.3.3,1.429.327A3.864,3.864,0,0,1,178.426,339.983Zm0,0" transform="translate(-134.89 -303.09)" fill="#ff7701"/>
    <g id="Group_25383" data-name="Group 25383" transform="translate(18.45 28.855)">
      <path id="Path_60586" data-name="Path 60586" d="M438.824,382.939l-.5,5.131a.664.664,0,0,1-.658.59.687.687,0,0,1-.074,0,.664.664,0,0,1-.587-.733l.519-5.282Zm0,0" transform="translate(-418.118 -378.353)" fill="#f79037"/>
      <path id="Path_60587" data-name="Path 60587" d="M227.094,422.631l-.446,4.206-1.336,0,.462-4.355a.664.664,0,1,1,1.32.147Zm0,0" transform="translate(-224.516 -414.252)" fill="#f79037"/>
      <path id="Path_60588" data-name="Path 60588" d="M370.939,438.485l-.295,2.829-1.336,0,.311-2.978a.664.664,0,0,1,1.32.147Zm0,0" transform="translate(-356.212 -428.753)" fill="#f79037"/>
      <path id="Path_60589" data-name="Path 60589" d="M310.564,352.892l-.2,2.229a.664.664,0,0,1-.659.591.706.706,0,0,1-.074,0,.663.663,0,0,1-.587-.733l.213-2.381Zm0,0" transform="translate(-301.093 -350.873)" fill="#f79037"/>
      <path id="Path_60590" data-name="Path 60590" d="M279.06,440.174l-.279,2.7-1.335,0,.295-2.848a.664.664,0,1,1,1.32.147Zm0,0" transform="translate(-272.196 -430.297)" fill="#f79037"/>
      <path id="Path_60591" data-name="Path 60591" d="M217.774,332.711l-.459,4.121a.665.665,0,0,1-.659.59.7.7,0,0,1-.074,0,.664.664,0,0,1-.586-.733l.467-4.2c0-.013,0-.026.006-.04a6.236,6.236,0,0,1,.653.113Zm0,0" transform="translate(-215.99 -332.449)" fill="#f79037"/>
    </g>
  </g>
</svg>
