<svg xmlns="http://www.w3.org/2000/svg" width="251.902" height="37.335" viewBox="0 0 251.902 37.335">
  <g id="Group_52491" data-name="Group 52491" transform="translate(-223.914 -406.852)">
    <path id="Path_101271" data-name="Path 101271" d="M9.3-34.775h6.718l9.7-25.175H19.607L12.662-40.588,5.679-59.95H-.435Zm26.307,0H40.4V-46.551c0-5.246-3.812-6.907-7.964-6.907a11.958,11.958,0,0,0-7.964,2.869l1.812,3.208a7.67,7.67,0,0,1,5.322-2.151c2.416,0,4,1.208,4,3.057v2.529a7.368,7.368,0,0,0-5.775-2.227c-2.906,0-6.341,1.547-6.341,5.812,0,4.076,3.435,6.039,6.341,6.039a7.544,7.544,0,0,0,5.775-2.34Zm0-4.378a4.794,4.794,0,0,1-3.85,1.585c-1.887,0-3.435-.981-3.435-2.68,0-1.736,1.547-2.755,3.435-2.755a4.794,4.794,0,0,1,3.85,1.585Zm7.624-4.756A9.256,9.256,0,0,0,52.9-34.322c3.737,0,6-1.623,7.209-3.321L56.973-40.55a4.6,4.6,0,0,1-3.85,1.963c-2.906,0-4.944-2.151-4.944-5.322s2.038-5.284,4.944-5.284a4.509,4.509,0,0,1,3.85,1.963l3.133-2.906c-1.208-1.7-3.472-3.321-7.209-3.321A9.247,9.247,0,0,0,43.234-43.909Zm18.079,0a9.256,9.256,0,0,0,9.662,9.587c3.737,0,6-1.623,7.209-3.321L75.052-40.55a4.6,4.6,0,0,1-3.85,1.963c-2.906,0-4.944-2.151-4.944-5.322S68.3-49.193,71.2-49.193a4.509,4.509,0,0,1,3.85,1.963l3.133-2.906c-1.208-1.7-3.472-3.321-7.209-3.321A9.247,9.247,0,0,0,61.313-43.909ZM82.94-55.685a2.867,2.867,0,0,0,2.868-2.868,2.867,2.867,0,0,0-2.868-2.869,2.892,2.892,0,0,0-2.868,2.869A2.892,2.892,0,0,0,82.94-55.685Zm-2.378,20.91h4.793v-18.23H80.562Zm21.1,0h4.793V-47.646c0-3.548-1.925-5.812-5.926-5.812a8.347,8.347,0,0,0-6.379,2.831v-2.378H89.357v18.23H94.15V-47.042A5.192,5.192,0,0,1,98.3-49.193c2.038,0,3.359.868,3.359,3.4Zm19.74,0h4.793V-46.551c0-5.246-3.812-6.907-7.964-6.907a11.958,11.958,0,0,0-7.964,2.869l1.812,3.208a7.67,7.67,0,0,1,5.322-2.151c2.416,0,4,1.208,4,3.057v2.529a7.368,7.368,0,0,0-5.775-2.227c-2.906,0-6.341,1.547-6.341,5.812,0,4.076,3.435,6.039,6.341,6.039a7.544,7.544,0,0,0,5.775-2.34Zm0-4.378a4.794,4.794,0,0,1-3.85,1.585c-1.887,0-3.435-.981-3.435-2.68,0-1.736,1.547-2.755,3.435-2.755a4.794,4.794,0,0,1,3.85,1.585Zm14.909,4.831a5.918,5.918,0,0,0,4-1.17l-1.019-3.623a2.619,2.619,0,0,1-1.661.528c-1.057,0-1.661-.868-1.661-2v-8.228h3.7v-4.19h-3.7v-4.982h-4.831v4.982h-3.019v4.19h3.019V-39.3C131.139-36.058,132.95-34.322,136.309-34.322Zm4.718-9.587c0,5.85,4.19,9.587,9.738,9.587a11.235,11.235,0,0,0,7.511-2.529l-2.114-3.095a7.455,7.455,0,0,1-4.869,1.812,4.912,4.912,0,0,1-5.246-4.227H159.6v-1.057c0-5.963-3.7-10.04-9.134-10.04A9.278,9.278,0,0,0,141.027-43.909Zm9.436-5.737a4.223,4.223,0,0,1,4.491,4.039h-8.983A4.381,4.381,0,0,1,150.463-49.646Zm33.856,14.871h5.4V-59.95h-7.549l-6.114,15.7-6.114-15.7h-7.511v25.175h5.36V-52.892l7.1,18.117h2.34l7.1-18.117Zm8.341-9.134c0,5.85,4.19,9.587,9.738,9.587a11.235,11.235,0,0,0,7.511-2.529L207.8-39.946a7.455,7.455,0,0,1-4.869,1.812,4.912,4.912,0,0,1-5.246-4.227h13.55v-1.057c0-5.963-3.7-10.04-9.134-10.04A9.278,9.278,0,0,0,192.66-43.909Zm9.436-5.737a4.223,4.223,0,0,1,4.491,4.039H197.6A4.381,4.381,0,0,1,202.1-49.646Z" transform="translate(264.586 472.442)" fill="#fff"/>
    <g id="Group_50630" data-name="Group 50630" transform="translate(223.914 406.852)">
      <path id="Path_60552" data-name="Path 60552" d="M654.4,507.653l-1.979,5.974h10.357v-5.974Z" transform="translate(-631.296 -492.554)" fill="#fff"/>
      <path id="Path_60553" data-name="Path 60553" d="M549.428,443.609l-2.015,6.082h-3.419l2.087-6.082h-3.419l-2.052,6.082h-3.383l2.051-6.082h-3.455l.936-2.915h3.527l1.943-5.974H538.7l.9-2.879h3.635l2.015-6.154h3.383l-2.016,6.154H550l2.016-6.154h3.419l-2.087,6.154h7.405v-6.733a1.094,1.094,0,0,0-.779-1.048l-14.645-4.393a1.093,1.093,0,0,0-.629,0l-14.645,4.393a1.094,1.094,0,0,0-.779,1.048v16.109a10.4,10.4,0,0,0,2.521,6.375,26.06,26.06,0,0,0,5.254,4.866,47.122,47.122,0,0,0,7.517,4.4,1.093,1.093,0,0,0,.894,0,47.126,47.126,0,0,0,7.517-4.4,26.067,26.067,0,0,0,5.254-4.866,12.217,12.217,0,0,0,2.158-3.983Z" transform="translate(-529.279 -419.62)" fill="#fff"/>
      <path id="Path_60554" data-name="Path 60554" d="M613.179,513.627h3.347l1.98-5.974h-3.383Z" transform="translate(-598.789 -492.554)" fill="#fff"/>
    </g>
  </g>
</svg>
