<svg xmlns="http://www.w3.org/2000/svg" width="53.559" height="34.366" viewBox="0 0 53.559 34.366">
  <g id="stretching" transform="translate(0 -91.738)">
    <g id="Group_25398" data-name="Group 25398" transform="translate(0 91.738)">
      <g id="Group_25390" data-name="Group 25390" transform="translate(10.13 0)">
        <g id="Group_25388" data-name="Group 25388" transform="translate(0 9.58)">
          <g id="Group_25387" data-name="Group 25387">
            <g id="Group_25384" data-name="Group 25384" transform="translate(4.621)">
              <path id="Path_60596" data-name="Path 60596" d="M274.894,184.662a5.825,5.825,0,0,0-6.6-.585c-1.693.963-3.366,1.911-3.366,1.911h0c-.259,8.436,6.711,5.7,7.193,12.611l1.4,1.438,5.819-1.239,1.189-2.194a18,18,0,0,0-.608-4.084A15.063,15.063,0,0,0,274.894,184.662Z" transform="translate(-251.959 -183.315)" fill="#ef4437"/>
              <path id="Path_60597" data-name="Path 60597" d="M161.169,312.352l-6.338,1.149-13.069,2.408-.689.5-.067,2.034.633.6h23.752a3.988,3.988,0,0,0,3.924-3.22l.235-3.521a19.2,19.2,0,0,0,.031-1.944A9.455,9.455,0,0,1,161.169,312.352Z" transform="translate(-141.006 -297.068)" fill="#717171"/>
            </g>
            <g id="Group_25386" data-name="Group 25386" transform="translate(21.673 0.001)">
              <path id="Path_60598" data-name="Path 60598" d="M314.933,192.527a15.063,15.063,0,0,0-5.032-7.859,5.824,5.824,0,0,0-5.883-.931,5.815,5.815,0,0,1,1.566.931,15.064,15.064,0,0,1,5.032,7.859,18,18,0,0,1,.608,4.084,19.226,19.226,0,0,1-.031,1.944l-.062.936,3.222-.686,1.189-2.194A18,18,0,0,0,314.933,192.527Z" transform="translate(-304.018 -183.322)" fill="#cc2e22"/>
              <g id="Group_25385" data-name="Group 25385" transform="translate(3.015 13.289)">
                <path id="Path_60599" data-name="Path 60599" d="M341.347,310.356a10.166,10.166,0,0,1-4.361,2.126l-.223,3.34a3.988,3.988,0,0,1-3.924,3.22h4.317a3.988,3.988,0,0,0,3.924-3.22l.235-3.521A19.225,19.225,0,0,0,341.347,310.356Z" transform="translate(-332.84 -310.356)" fill="#333"/>
              </g>
            </g>
            <path id="Path_60600" data-name="Path 60600" d="M102.21,335l-.055.012a2.5,2.5,0,0,1-2.953-1.842l-.006-.027-.125-.574a1.131,1.131,0,0,0-2.237.241l0,3.441a1.775,1.775,0,0,0,1.767,1.872l3.484.01Z" transform="translate(-96.834 -316.158)" fill="#f4c2a2"/>
          </g>
        </g>
        <g id="Group_25389" data-name="Group 25389" transform="translate(12.781)">
          <circle id="Ellipse_1839" data-name="Ellipse 1839" cx="1.873" cy="1.873" r="1.873" transform="translate(5.467)" fill="#333"/>
          <path id="Path_60601" data-name="Path 60601" d="M227.9,116.4a4.6,4.6,0,0,0-8.581,3.306l.407,1.056a4.6,4.6,0,0,0,8.581-3.306Z" transform="translate(-219.012 -111.187)" fill="#f4c2a2"/>
          <path id="Path_60603" data-name="Path 60603" d="M221.969,113.768a4.6,4.6,0,0,0-2.923,4.735l3.247-1.251a1.525,1.525,0,0,1,1.971.875,1.525,1.525,0,0,0,.718.8l3.366,1.754a4.579,4.579,0,0,0-.029-3.224l-.407-1.056A4.6,4.6,0,0,0,221.969,113.768Z" transform="translate(-219.023 -111.187)" fill="#333"/>
          <path id="Path_60604" data-name="Path 60604" d="M234.2,117.46l-.407-1.056a4.6,4.6,0,0,0-8.2-.763,4.609,4.609,0,0,1,3.634,1.594,1.521,1.521,0,0,1,.919.89,1.525,1.525,0,0,0,.718.8l3.366,1.754A4.579,4.579,0,0,0,234.2,117.46Z" transform="translate(-224.903 -111.186)" fill="#333"/>
        </g>
        <path id="Path_60605" data-name="Path 60605" d="M151.869,219.534a2.064,2.064,0,1,0-1.609-3.8l-10.306,5.807a22.627,22.627,0,0,0-5.6,4.459l-.292.32a.363.363,0,0,0,.41.579Z" transform="translate(-130.076 -202.614)" fill="#f4c2a2"/>
      </g>
      <g id="Group_25397" data-name="Group 25397" transform="translate(0 31.501)">
        <g id="Group_25396" data-name="Group 25396">
          <g id="Group_25395" data-name="Group 25395">
            <g id="Group_25394" data-name="Group 25394">
              <g id="Group_25393" data-name="Group 25393">
                <g id="Group_25392" data-name="Group 25392">
                  <g id="Group_25391" data-name="Group 25391">
                    <path id="Path_60606" data-name="Path 60606" d="M52.126,395.738H1.433a1.433,1.433,0,1,1,0-2.866H52.126a1.433,1.433,0,1,1,0,2.866Z" transform="translate(0 -392.872)" fill="#4d86c7"/>
                  </g>
                </g>
              </g>
            </g>
          </g>
        </g>
      </g>
      <path id="Path_60607" data-name="Path 60607" d="M473.9,392.872h-2.851v2.866H473.9a1.433,1.433,0,1,0,0-2.866Z" transform="translate(-421.774 -361.371)" fill="#1565c0"/>
    </g>
  </g>
</svg>
