<svg xmlns="http://www.w3.org/2000/svg" width="46.185" height="46.185" viewBox="0 0 46.185 46.185">
  <g id="food" transform="translate(-0.71 -0.011)">
    <circle id="Ellipse_1837" data-name="Ellipse 1837" cx="23.092" cy="23.092" r="23.092" transform="translate(0.71 0.011)" fill="#e6e6e6"/>
    <circle id="Ellipse_1838" data-name="Ellipse 1838" cx="16.646" cy="16.646" r="16.646" transform="translate(7.157 6.458)" fill="#d0d0d0"/>
    <path id="Path_60592" data-name="Path 60592" d="M148.506.009a.608.608,0,0,0-.556.625V6.958a.625.625,0,1,1-1.251,0V.634a.568.568,0,0,0-.556-.625.639.639,0,0,0-.695.625V6.958a.623.623,0,0,1-.625.625h0a.623.623,0,0,1-.625-.625V.634a.568.568,0,0,0-.556-.625.639.639,0,0,0-.695.625V6.958a.623.623,0,0,1-.625.625h0a.623.623,0,0,1-.625-.625V.634a.568.568,0,0,0-.556-.625.639.639,0,0,0-.695.625V7.653a4.493,4.493,0,0,0,1.251,3.058,6.072,6.072,0,0,1,1.807,4.726l-1.39,15.012v.487a2.674,2.674,0,0,0,3.127,2.363,2.748,2.748,0,0,0,2.154-2.988l-1.32-14.942a5.981,5.981,0,0,1,1.807-4.726,4.365,4.365,0,0,0,1.251-3.058V.634A.623.623,0,0,0,148.506.009Z" transform="translate(-131.844 6.409)" fill="#fff"/>
    <path id="Path_60593" data-name="Path 60593" d="M171.071,240.137H168.43l-1.32,14.8v.487a2.674,2.674,0,0,0,3.127,2.363,2.748,2.748,0,0,0,2.154-2.988Z" transform="translate(-156.773 -218.082)" fill="#333"/>
    <path id="Path_60594" data-name="Path 60594" d="M292.94.137s-2.965,1.172-4.206,10.066a20.807,20.807,0,0,0,1.655,10.617,3.22,3.22,0,0,1,.207,1.172l-.827,8.894V31.3a2.18,2.18,0,0,0,2.413,1.93,2.27,2.27,0,0,0,1.792-2.413Z" transform="translate(-257.652 6.437)" fill="#fff"/>
    <path id="Path_60595" data-name="Path 60595" d="M307.671,337.2v.138l-.827,8.894v.414a2.18,2.18,0,0,0,2.413,1.93,2.27,2.27,0,0,0,1.793-2.413l-.276-8.894h-3.1V337.2Z" transform="translate(-274.727 -308.844)" fill="#ef4437"/>
  </g>
</svg>
