<svg xmlns="http://www.w3.org/2000/svg" width="72" height="72" viewBox="0 0 72 72">
  <g id="Group_61646" data-name="Group 61646" transform="translate(-16 -327)" opacity="0.96">
    <circle id="Ellipse_1" data-name="Ellipse 1" cx="36" cy="36" r="36" transform="translate(16 327)" fill="#fff2f2"/>
    <g id="Stretch_Yoga_Workout_at_home" data-name="Stretch, Yoga, Workout at home" transform="translate(34 345)">
      <rect id="bounding_box" data-name="bounding box" width="36" height="36" fill="none"/>
      <path id="yoga" d="M17.5,2a3,3,0,1,0,3,3,3.009,3.009,0,0,0-3-3M4,9.5v3h9v9L5.4,29.105,7.51,31.25l10.08-10.1,5.91,3.54V30.5h3V23.855a1.451,1.451,0,0,0-.75-1.29L20.5,19.4V12.5h9v-3Z" transform="translate(2 1)" fill="#e02e2e"/>
    </g>
    <g id="Stretch_Yoga_Workout_at_home-2" data-name="Stretch, Yoga, Workout at home" transform="translate(34 345)">
      <rect id="bounding_box-2" data-name="bounding box" width="36" height="36" fill="none"/>
      <path id="yoga-2" data-name="yoga" d="M17.5,2a3,3,0,1,0,3,3,3.009,3.009,0,0,0-3-3M4,9.5v3h9v9L5.4,29.105,7.51,31.25l10.08-10.1,5.91,3.54V30.5h3V23.855a1.451,1.451,0,0,0-.75-1.29L20.5,19.4V12.5h9v-3Z" transform="translate(2 1)" fill="#e02e2e"/>
    </g>
  </g>
</svg>
