<svg xmlns="http://www.w3.org/2000/svg" width="72" height="72" viewBox="0 0 72 72">
  <g id="Group_61648" data-name="Group 61648" transform="translate(-16 -527)">
    <circle id="Ellipse_12" data-name="Ellipse 12" cx="36" cy="36" r="36" transform="translate(16 527)" fill="#fff2f2"/>
    <g id="Group_50772" data-name="Group 50772" transform="translate(34 545)">
      <rect id="Rectangle_8086" data-name="Rectangle 8086" width="36" height="36" fill="none"/>
      <g id="Like_icon" data-name="Like icon" transform="translate(2.769 3.462)">
        <g id="Like_Icon-2" data-name="Like Icon">
          <path id="Path_46" data-name="Path 46" d="M23.5,9a7.288,7.288,0,0,0-5.43,2.494A7.288,7.288,0,0,0,12.636,9,6.567,6.567,0,0,0,6,15.636c0,4.545,4.1,8.285,10.3,13.916l1.77,1.609L19.8,29.553c6.234-5.631,10.337-9.371,10.337-13.916A6.567,6.567,0,0,0,23.5,9Z" transform="translate(-3.257 -5.051)" fill="#e02e2e"/>
          <rect id="Rectangle_52" data-name="Rectangle 52" width="29.769" height="29.769" fill="none"/>
        </g>
      </g>
    </g>
  </g>
</svg>
