<svg id="scale" xmlns="http://www.w3.org/2000/svg" width="46.857" height="45.03" viewBox="0 0 46.857 45.03">
  <path id="Path_2915" data-name="Path 2915" d="M23.429,33.094H6.331A6.294,6.294,0,0,0,.018,39.821L2.27,70.2a6.305,6.305,0,0,0,6.313,5.81H38.274a6.305,6.305,0,0,0,6.313-5.81L46.84,39.821a6.294,6.294,0,0,0-6.313-6.727Z" transform="translate(0 -30.979)" fill="#fbc934"/>
  <path id="Path_2916" data-name="Path 2916" d="M376.693,39.821,374.441,70.2a6.306,6.306,0,0,1-6.313,5.81h-5.045A6.306,6.306,0,0,0,369.4,70.2l2.252-30.377a6.294,6.294,0,0,0-6.313-6.728h5.045A6.3,6.3,0,0,1,376.693,39.821Z" transform="translate(-329.854 -30.978)" fill="#f2bc1a"/>
  <circle id="Ellipse_370" data-name="Ellipse 370" cx="9.979" cy="9.979" r="9.979" transform="translate(13.449)" fill="#f6f6f6"/>
  <path id="Path_2917" data-name="Path 2917" d="M244.844,19.965a9.984,9.984,0,0,1-12.108,9.75,9.98,9.98,0,0,0,0-19.5,9.984,9.984,0,0,1,12.108,9.75Z" transform="translate(-211.437 -9.986)" fill="#dfdfdf"/>
  <g id="Group_13977" data-name="Group 13977" transform="translate(15.357 1.908)">
    <path id="Path_2918" data-name="Path 2918" d="M249.184,33.759a.686.686,0,0,1-.686-.686V31.513a.686.686,0,1,1,1.373,0v1.559A.686.686,0,0,1,249.184,33.759Z" transform="translate(-241.113 -30.827)" fill="#333"/>
    <path id="Path_2919" data-name="Path 2919" d="M249.184,178.117a.686.686,0,0,1-.686-.686v-1.559a.686.686,0,0,1,1.373,0v1.559A.686.686,0,0,1,249.184,178.117Z" transform="translate(-241.113 -161.974)" fill="#333"/>
    <path id="Path_2920" data-name="Path 2920" d="M209.615,44.362a.686.686,0,0,1-.6-.343l-.78-1.35a.686.686,0,1,1,1.189-.686l.78,1.35a.687.687,0,0,1-.594,1.03Z" transform="translate(-204.456 -40.649)" fill="#333"/>
    <path id="Path_2921" data-name="Path 2921" d="M281.794,169.379a.686.686,0,0,1-.6-.343l-.779-1.35a.686.686,0,1,1,1.189-.686l.78,1.35a.687.687,0,0,1-.594,1.03Z" transform="translate(-270.029 -154.225)" fill="#333"/>
    <path id="Path_2922" data-name="Path 2922" d="M180.648,73.327a.683.683,0,0,1-.343-.092l-1.35-.78a.686.686,0,1,1,.686-1.189l1.35.78a.686.686,0,0,1-.344,1.281Z" transform="translate(-177.623 -67.482)" fill="#333"/>
    <path id="Path_2923" data-name="Path 2923" d="M305.665,145.505a.683.683,0,0,1-.343-.092l-1.35-.78a.686.686,0,1,1,.686-1.189l1.35.78a.686.686,0,0,1-.344,1.281Z" transform="translate(-291.198 -133.055)" fill="#333"/>
    <path id="Path_2924" data-name="Path 2924" d="M170.047,112.9h-1.559a.686.686,0,0,1,0-1.373h1.559a.686.686,0,0,1,0,1.373Z" transform="translate(-167.801 -104.139)" fill="#333"/>
    <path id="Path_2925" data-name="Path 2925" d="M314.4,112.9h-1.559a.686.686,0,0,1,0-1.373H314.4a.686.686,0,0,1,0,1.373Z" transform="translate(-298.948 -104.139)" fill="#333"/>
    <path id="Path_2926" data-name="Path 2926" d="M179.3,145.506a.686.686,0,0,1-.344-1.281l1.35-.78a.686.686,0,0,1,.686,1.189l-1.35.78A.683.683,0,0,1,179.3,145.506Z" transform="translate(-177.622 -133.055)" fill="#333"/>
    <path id="Path_2927" data-name="Path 2927" d="M304.316,73.327a.686.686,0,0,1-.344-1.281l1.35-.78a.686.686,0,0,1,.686,1.189l-1.35.78A.683.683,0,0,1,304.316,73.327Z" transform="translate(-291.198 -67.482)" fill="#333"/>
    <path id="Path_2928" data-name="Path 2928" d="M208.835,169.378a.687.687,0,0,1-.594-1.03l.78-1.35a.686.686,0,0,1,1.189.686l-.78,1.35A.686.686,0,0,1,208.835,169.378Z" transform="translate(-204.456 -154.225)" fill="#333"/>
    <path id="Path_2929" data-name="Path 2929" d="M281.013,44.361a.687.687,0,0,1-.594-1.03l.78-1.35a.686.686,0,1,1,1.189.686l-.78,1.35A.686.686,0,0,1,281.013,44.361Z" transform="translate(-270.029 -40.649)" fill="#333"/>
    <path id="Path_2930" data-name="Path 2930" d="M239.045,78.372a1.858,1.858,0,0,0-1.009-.88V76.121a.686.686,0,1,0-1.373,0v1.4c-.051.022-.1.045-.151.071a1.874,1.874,0,0,0,.325,3.447,1.863,1.863,0,0,0,1.428-.135,1.874,1.874,0,0,0,.78-2.532ZM237.868,79.4a.5.5,0,1,1-.479-.649.5.5,0,0,1,.148.022.5.5,0,0,1,.331.626Z" transform="translate(-229.318 -71.353)" fill="#333"/>
  </g>
</svg>
